#!OML:ASF H:\MichaelJackson\Top Level 1\Subject 1\Session 1\male.ASF
:FULLY-SPECIFIED
:DEGREES
951
root 1.08452 15.2742 32.749 6.94149 -2.90562 364.34
lowerback -2.4067 -0.812884 1.33013
upperback -1.20164 -1.10418 -6.71315
thorax -0.049838 -0.588086 -7.78412
lowerneck -6.30677 1.0817 5.38776
upperneck 0.486805 0.957957 3.21213
head 1.21616 0.555182 0.123903
rclavicle -2.127e-014 2.54444e-014
rhumerus 2.3836 -27.1599 2.51315
rradius 28.9609
rwrist -10.3465
rhand -33.2651 -50.2064
rfingers 7.12502
rthumb -6.47013 -800.088
lclavicle -2.127e-014 2.54444e-014
lhumerus -59.1027 -43.3509 112.248
lradius 55.3169
lwrist 25.8528
lhand 39.463 23.8258
lfingers 7.12502
lthumb 61.9486 35.3836
rfemur -31.9162 -16.6386 -6.5324
rtibia 49.6179
rfoot -21.3988 4.60915
rtoes -42.1429
lfemur 6.96532 0.826063 4.79172
ltibia -6.36111e-014
lfoot -28.5584 -13.7024
ltoes -32.3573
952
root 1.06999 15.2637 32.7402 6.89476 -3.14126 364.242
lowerback -2.42106 -0.899031 1.3527
upperback -1.14019 -1.21747 -6.60185
thorax 0.00763888 -0.642415 -7.67998
lowerneck -6.21162 1.23163 5.51103
upperneck 0.445384 1.15916 3.11621
head 1.19007 0.651959 0.0789814
rclavicle 2.03754e-014 -2.70347e-014
rhumerus 2.87877 -26.549 2.59639
rradius 28.9807
rwrist -9.37336
rhand -32.5679 -50.308
rfingers 7.12502
rthumb -5.79705 -800.209
lclavicle 2.03754e-014 -2.70347e-014
lhumerus -59.118 -43.3673 112.408
lradius 55.2889
lwrist 26.2206
lhand 39.0406 23.914
lfingers 7.12502
lthumb 61.5952 35.9029
rfemur -32.1411 -16.5352 -6.33135
rtibia 49.8224
rfoot -21.581 4.61164
rtoes -42.0756
lfemur 7.16311 1.02425 4.92086
ltibia 3.81667e-014
lfoot -28.6927 -13.339
ltoes -32.6515
953
root 1.05753 15.2529 32.7303 6.8266 -3.42135 364.17
lowerback -2.40532 -0.962165 1.33844
upperback -1.08989 -1.30032 -6.49494
thorax 0.0421056 -0.681987 -7.55798
lowerneck -6.1171 1.35257 5.59306
upperneck 0.426627 1.3236 3.03492
head 1.17095 0.731268 0.0443343
rclavicle -2.98177e-016 -1.43125e-014
rhumerus 3.46276 -26.2543 2.48423
rradius 29.0263
rwrist -9.50186
rhand -32.44 -50.3388
rfingers 7.12502
rthumb -5.6736 -800.243
lclavicle -2.98177e-016 -1.43125e-014
lhumerus -59.1613 -43.4609 112.641
lradius 55.3053
lwrist 26.5206
lhand 38.6117 24.0614
lfingers 7.12502
lthumb 61.2347 36.4768
rfemur -32.3714 -16.4053 -6.16964
rtibia 50.0221
rfoot -21.7576 4.64439
rtoes -42.0196
lfemur 7.39583 1.25075 5.01695
ltibia 0
lfoot -28.8242 -13.0103
ltoes -32.9027
954
root 1.04695 15.2418 32.7199 6.73925 -3.72839 364.123
lowerback -2.35435 -0.99915 1.29416
upperback -1.05287 -1.34879 -6.40256
thorax 0.0485079 -0.70506 -7.43273
lowerneck -6.02937 1.43874 5.64486
upperneck 0.424948 1.44201 2.98907
head 1.15757 0.788763 0.0244029
rclavicle -1.56046e-014 -5.56597e-014
rhumerus 4.04698 -26.1149 2.26527
rradius 29.0836
rwrist -10.5677
rhand -32.7459 -50.2368
rfingers 7.12502
rthumb -5.96887 -800.133
lclavicle -1.56046e-014 -5.56597e-014
lhumerus -59.2277 -43.6223 112.924
lradius 55.3558
lwrist 26.6703
lhand 38.2407 24.1935
lfingers 7.12502
lthumb 60.9214 36.9686
rfemur -32.5999 -16.2787 -6.04665
rtibia 50.2182
rfoot -21.932 4.7242
rtoes -41.9698
lfemur 7.65059 1.49078 5.08443
ltibia -1.11319e-014
lfoot -28.9485 -12.7391
ltoes -33.0992
955
root 1.03805 15.2307 32.7093 6.63778 -4.04417 364.1
lowerback -2.26902 -1.01023 1.22612
upperback -1.0303 -1.36341 -6.33137
thorax 0.0255305 -0.711983 -7.31502
lowerneck -5.95512 1.48885 5.67834
upperneck 0.435649 1.51118 2.99213
head 1.14929 0.822984 0.0213686
rclavicle -1.17283e-014 2.22639e-014
rhumerus 4.56049 -26.0301 2.01134
rradius 29.1322
rwrist -12.1393
rhand -33.2647 -49.9913
rfingers 7.12502
rthumb -6.46972 -799.872
lclavicle -1.17283e-014 2.22639e-014
lhumerus -59.3048 -43.8301 113.228
lradius 55.4183
lwrist 26.6138
lhand 37.9904 24.2379
lfingers 7.12502
lthumb 60.7094 37.2512
rfemur -32.8206 -16.1762 -5.9593
rtibia 50.4106
rfoot -22.1055 4.85595
rtoes -41.9221
lfemur 7.91248 1.73041 5.12896
ltibia -2.22639e-014
lfoot -29.0626 -12.5395
ltoes -33.2356
956
root 1.03065 15.2196 32.6988 6.52938 -4.35165 364.098
lowerback -2.15652 -0.998286 1.14052
upperback -1.0214 -1.34808 -6.28414
thorax -0.0229745 -0.704622 -7.21171
lowerneck -5.90048 1.5057 5.70407
upperneck 0.453265 1.53373 3.04666
head 1.14544 0.835193 0.0344127
rclavicle 4.57205e-015 4.77083e-014
rhumerus 4.95868 -25.9642 1.7688
rradius 29.1452
rwrist -13.67
rhand -33.7461 -49.6336
rfingers 7.12502
rthumb -6.93445 -799.5
lclavicle 4.57205e-015 4.77083e-014
lhumerus -59.3726 -44.0552 113.521
lradius 55.466
lwrist 26.3345
lhand 37.9106 24.149
lfingers 7.12502
lthumb 60.6417 37.2375
rfemur -33.029 -16.1097 -5.90317
rtibia 50.5979
rfoot -22.2774 5.03488
rtoes -41.8725
lfemur 8.16615 1.95782 5.15604
ltibia 3.97569e-014
lfoot -29.1649 -12.4148
ltoes -33.3144
